<svg width="734" height="640" viewBox="0 0 734 640" fill="none" xmlns="http://www.w3.org/2000/svg" xmlns:xlink="http://www.w3.org/1999/xlink">
<rect width="734" height="640" fill="url(#pattern0)"/>
<defs>
<pattern id="pattern0" patternContentUnits="objectBoundingBox" width="1" height="1">
<use xlink:href="#image0" transform="translate(-0.00408719) scale(0.0013624 0.0015625)"/>
</pattern>
</defs>
<path d="M222 527L442.8 535L512 521.3V543L443.5 562.7L222 551.7V527Z" fill="#3595F6" fill-opacity="0.75"/>
<path d="M223 526V501L443.3 504.3L513 501V521L443.7 534L223 526Z" fill="#3595F6" fill-opacity="0.75"/>
<path d="M223 500V475H444H513V498L445 505L223 500Z" fill="#3595F6" fill-opacity="0.75"/>
<path d="M223 476V451L444.3 447.3L512 454V476H444" fill="#3595F6" fill-opacity="0.75"/>
<path d="M223 450V424L444.5 420.7L513 431.7V453L444 446.3L223 450Z" fill="#3595F6" fill-opacity="0.75"/>
<path d="M222 423V399.3L443 387L514 410V431.3L443 419L222 423Z" fill="#3595F6" fill-opacity="0.75"/>
<path d="M222 401V376L444.2 359.7L514 388.3V409L443.7 387.3L222 401Z" fill="#3595F6" fill-opacity="0.75"/>
<path d="M222 376V351L444.5 330.7L514 367.3V388L442 359.3L222 376Z" fill="#3595F6" fill-opacity="0.75"/>
<path d="M222 350V326L445 301.3L514 345.3V367L444.7 329L222 350Z" fill="#3595F6" fill-opacity="0.75"/>
<path d="M222 325V301L444.5 272.3L514 323.3V344L443.7 301.7L222 325Z" fill="#3595F6" fill-opacity="0.75"/>
<path d="M221 302.443V277.835L443.3 244L514 304.801V325L444 273.016L221 302.443Z" fill="#3595F6" fill-opacity="0.75"/>
<path d="M222 277.388V252.824L443.2 217L513 282.506V304L444.3 244.328L222 277.388Z" fill="#3595F6" fill-opacity="0.75"/>
<path d="M222 253.385V227.835L444.3 189L513 260.845V282L444 216.593L222 253.385Z" fill="#3595F6" fill-opacity="0.75"/>
<path d="M222 227.351V201.859L442.8 157.3L513 237.854V261L444 186.259L222 227.351Z" fill="#3595F6" fill-opacity="0.75"/>
<path d="M223 203.352V177.889L443 129L513 215.574V239L442.3 158.231L223 203.352Z" fill="#3595F6" fill-opacity="0.75"/>
<path d="M222 178.339V152.904L441.8 100L513 193.905V217L443.3 129.199L222 178.339Z" fill="#3595F6" fill-opacity="0.75"/>
<path d="M222 153.348V126.924L444 69.3L513 172.658V194L443.7 100.805L222 153.348Z" fill="#3595F6" fill-opacity="0.75"/>

</svg>
